<?xml version="1.0" standalone="no"?>
<!DOCTYPE svg PUBLIC "-//W3C//DTD SVG 20010904//EN"
 "http://www.w3.org/TR/2001/REC-SVG-20010904/DTD/svg10.dtd">
<svg version="1.0" xmlns="http://www.w3.org/2000/svg"
 width="800.000000pt" height="800.000000pt" viewBox="0 0 800.000000 800.000000"
 preserveAspectRatio="xMidYMid meet">
<metadata>
Created by potrace 1.14, written by Peter Selinger 2001-2017
</metadata>
<g transform="translate(0.000000,800.000000) scale(0.100000,-0.100000)"
fill="#000000" stroke="none">
<path d="M3165 5398 c-65 -38 -105 -154 -120 -348 -3 -41 -7 -88 -9 -105 -2
-16 -6 -60 -10 -97 -3 -38 -9 -98 -12 -135 -4 -38 -8 -79 -9 -93 -2 -14 -6
-59 -9 -100 -4 -41 -9 -95 -11 -120 -6 -50 -11 -112 -20 -210 -3 -36 -7 -81
-10 -100 -2 -19 -7 -69 -10 -110 -3 -41 -8 -91 -10 -110 -3 -19 -7 -64 -10
-100 -5 -64 -9 -115 -20 -215 -2 -27 -7 -81 -11 -120 -3 -38 -8 -88 -10 -110
-2 -22 -6 -69 -9 -105 -3 -36 -8 -81 -10 -100 -22 -183 -24 -318 -5 -386 15
-52 53 -94 87 -94 90 0 148 117 168 340 4 41 9 86 10 100 1 14 6 61 9 105 4
44 9 96 11 115 3 19 7 67 10 105 3 39 8 86 10 105 2 19 7 69 10 110 4 41 8 86
10 100 2 14 6 63 10 110 3 47 8 101 10 120 7 62 14 133 20 210 3 41 8 86 10
100 2 14 7 61 10 105 4 44 8 94 10 110 3 32 13 136 21 225 3 30 7 75 9 100 2
25 7 77 10 115 4 39 9 84 12 100 2 17 6 80 8 141 3 87 -1 122 -15 164 -27 79
-80 110 -135 78z"/>
<path d="M6520 5386 c-96 -65 -144 -279 -95 -426 19 -56 58 -100 90 -100 l23
0 -13 -58 c-21 -87 -48 -142 -102 -208 -64 -76 -71 -90 -76 -150 -6 -55 12
-111 38 -121 32 -12 83 25 134 97 115 165 192 437 193 685 0 158 -22 240 -78
284 -35 27 -71 27 -114 -3z"/>
<path d="M7390 5380 c-193 -67 -331 -244 -401 -517 -28 -113 -34 -171 -34
-348 0 -214 30 -321 121 -440 65 -86 130 -133 309 -223 139 -71 196 -116 230
-181 95 -188 12 -506 -159 -606 -83 -49 -195 -42 -261 16 -37 33 -81 116 -90
170 -3 19 -8 45 -10 59 -3 14 -8 36 -10 50 -3 14 -8 48 -11 75 -9 80 -33 165
-55 196 -16 23 -28 29 -59 29 -33 0 -44 -6 -73 -40 -60 -70 -76 -141 -73 -310
4 -169 30 -290 92 -418 50 -103 134 -187 224 -222 84 -32 244 -36 327 -7 138
48 270 175 353 337 23 46 68 161 75 193 2 10 7 27 10 37 6 20 10 35 26 115 35
177 32 445 -6 569 -59 192 -158 290 -425 426 -214 108 -264 171 -263 335 1
108 24 180 84 255 106 134 291 133 360 -2 20 -40 56 -166 64 -225 13 -101 47
-178 84 -191 59 -21 114 27 154 136 31 83 31 284 -1 395 -86 303 -309 432
-582 337z"/>
<path d="M4770 5364 c-56 -36 -97 -128 -107 -240 -20 -238 142 -322 232 -120
30 68 43 206 25 269 -24 89 -91 129 -150 91z"/>
<path d="M375 5346 c-70 -31 -117 -124 -129 -256 -4 -36 -9 -85 -11 -110 -3
-25 -7 -70 -10 -100 -3 -30 -7 -75 -10 -100 -2 -25 -7 -79 -11 -120 -3 -41 -7
-86 -9 -100 -1 -14 -6 -63 -10 -110 -4 -47 -9 -96 -10 -110 -1 -14 -6 -63 -9
-110 -4 -47 -9 -96 -11 -110 -2 -14 -7 -59 -10 -100 -3 -41 -8 -91 -10 -110
-2 -19 -7 -69 -10 -110 -3 -41 -8 -86 -10 -100 -2 -14 -7 -63 -10 -108 -4 -46
-8 -92 -10 -102 -2 -10 -6 -62 -10 -116 -3 -55 -8 -106 -10 -114 -2 -8 -7 -51
-10 -95 -3 -44 -8 -92 -10 -105 -12 -57 -14 -277 -3 -318 15 -59 57 -102 99
-102 59 0 122 90 143 205 8 43 20 152 31 280 3 39 8 88 10 110 2 22 7 72 10
110 5 66 9 100 20 205 2 25 7 70 9 100 3 30 8 80 11 110 2 30 7 82 10 115 3
33 7 80 10 105 2 25 7 74 10 110 3 36 7 83 10 105 8 81 19 196 30 330 4 44 9
87 11 95 1 8 3 35 3 59 1 65 14 41 16 -31 2 -35 6 -144 9 -243 4 -99 9 -223
11 -275 3 -52 7 -160 10 -240 10 -248 15 -380 20 -510 3 -69 7 -183 10 -255
11 -268 18 -329 47 -397 28 -66 50 -83 108 -83 98 0 145 83 214 380 26 110 54
227 61 260 14 57 60 262 175 775 27 124 57 254 66 289 9 36 17 72 19 80 39
182 67 306 70 309 2 3 2 -20 -1 -49 -9 -108 -14 -161 -30 -334 -3 -33 -7 -71
-9 -85 -2 -14 -7 -63 -10 -110 -3 -47 -8 -103 -11 -125 -5 -39 -8 -71 -19
-210 -3 -38 -8 -86 -10 -105 -2 -19 -6 -62 -9 -95 -6 -66 -17 -183 -22 -230
-1 -16 -6 -66 -9 -110 -4 -44 -8 -90 -10 -102 -12 -80 -20 -197 -20 -313 0
-110 3 -141 17 -167 48 -87 129 -82 183 11 37 64 55 152 70 331 6 72 12 131
20 200 2 22 7 74 10 115 3 41 8 98 10 125 3 28 7 70 10 95 8 79 14 143 21 220
3 41 8 89 10 105 2 17 6 64 10 105 3 41 7 91 9 110 2 19 7 69 10 110 3 41 8
91 10 110 3 19 7 67 10 105 3 39 7 86 10 105 4 33 9 82 20 210 7 75 14 155 21
220 22 212 7 309 -54 350 -31 22 -47 25 -139 27 -193 4 -198 -4 -297 -422 -30
-126 -57 -241 -60 -255 -2 -14 -12 -56 -21 -95 -9 -38 -18 -77 -20 -85 -2 -8
-10 -42 -18 -75 -9 -33 -18 -71 -21 -85 -4 -23 -24 -108 -47 -205 -5 -22 -12
-49 -14 -60 -5 -23 -101 -431 -114 -485 l-9 -35 -2 45 c-1 25 -3 59 -5 75 -1
17 -6 107 -10 200 -3 94 -8 197 -10 230 -2 33 -6 121 -9 195 -4 74 -8 178 -11
230 -2 52 -7 147 -10 210 -3 63 -7 162 -10 220 -15 320 -28 369 -102 389 -54
15 -202 13 -238 -3z"/>
<path d="M2205 4656 c-138 -43 -247 -150 -338 -332 -67 -134 -120 -306 -147
-484 -6 -41 -13 -86 -16 -100 -9 -57 -18 -243 -18 -355 2 -366 107 -622 292
-712 51 -24 68 -28 157 -28 93 0 105 2 166 32 118 59 210 158 275 298 74 160
78 324 9 341 -53 13 -68 2 -142 -106 -89 -130 -149 -195 -205 -220 -116 -53
-208 8 -259 170 -16 49 -22 102 -26 218 l-6 152 277 0 c314 0 350 5 406 59 61
58 84 164 84 386 -1 142 -8 207 -34 312 -46 177 -133 304 -245 357 -49 23
-173 30 -230 12z m95 -342 c64 -13 125 -105 145 -219 4 -22 8 -95 10 -162 l3
-123 -240 0 -240 0 7 43 c16 96 58 236 91 303 39 78 77 123 126 147 37 18 51
20 98 11z"/>
<path d="M3533 4642 c-77 -71 -100 -180 -78 -372 4 -36 9 -83 11 -105 2 -22 6
-56 9 -75 13 -106 27 -222 40 -332 6 -57 35 -294 40 -338 3 -19 7 -57 10 -85
6 -56 53 -430 61 -485 21 -154 70 -220 151 -207 19 4 42 12 51 19 30 25 79
113 102 183 28 87 150 485 155 505 2 8 47 157 100 330 53 173 112 367 132 430
19 63 46 151 60 195 31 100 39 231 17 283 -21 51 -53 82 -84 82 -51 0 -87 -44
-124 -154 -15 -43 -208 -708 -240 -826 -7 -25 -39 -137 -72 -250 l-59 -205 -7
70 c-4 39 -10 99 -13 135 -3 36 -8 81 -10 100 -5 44 -13 135 -20 220 -3 36 -8
83 -10 105 -4 37 -7 63 -20 195 -2 25 -7 79 -11 120 -4 41 -8 86 -9 100 -2 14
-6 59 -9 100 -4 41 -9 87 -12 101 -2 15 -6 45 -9 67 -7 58 -20 88 -47 106 -34
24 -72 20 -105 -12z"/>
<path d="M4681 4634 c-43 -44 -74 -127 -85 -229 -7 -59 -10 -90 -21 -210 -3
-33 -8 -80 -10 -105 -2 -25 -7 -74 -10 -110 -3 -36 -8 -83 -10 -105 -2 -22 -7
-74 -10 -115 -3 -41 -8 -91 -10 -110 -3 -19 -7 -64 -10 -100 -6 -72 -14 -157
-20 -210 -2 -19 -7 -71 -10 -115 -4 -44 -8 -91 -10 -105 -10 -66 -19 -203 -18
-275 2 -169 77 -251 163 -179 68 58 93 149 115 419 2 17 5 57 9 90 3 33 9 92
12 130 4 39 8 81 9 95 7 70 17 181 21 225 2 28 6 70 9 95 2 25 6 70 9 100 15
157 18 197 21 220 2 14 6 61 10 105 4 44 8 96 10 115 31 274 5 392 -87 407
-34 5 -42 2 -77 -33z"/>
<path d="M5208 4647 c-14 -12 -35 -40 -46 -63 -28 -55 -41 -130 -57 -314 -3
-41 -8 -93 -11 -115 -6 -55 -13 -129 -19 -200 -6 -70 -19 -206 -30 -315 -3
-25 -7 -76 -10 -115 -6 -77 -14 -160 -20 -215 -3 -19 -7 -71 -11 -114 -3 -44
-7 -87 -9 -97 -3 -16 -17 -202 -18 -244 -2 -41 15 -129 28 -156 35 -66 94 -77
147 -25 49 48 82 145 93 277 2 20 6 65 10 100 9 91 14 144 20 224 4 39 8 84 9
100 2 17 7 64 10 105 4 41 9 91 11 110 2 19 7 60 10 90 25 235 46 332 92 428
72 153 172 216 259 163 17 -10 38 -35 48 -55 34 -72 38 -257 12 -521 -2 -16
-7 -66 -11 -110 -4 -44 -9 -91 -10 -105 -1 -14 -6 -61 -10 -105 -3 -44 -8 -96
-10 -115 -2 -19 -7 -66 -10 -105 -3 -38 -8 -81 -10 -95 -13 -79 -16 -235 -5
-293 28 -152 144 -171 208 -34 19 40 50 170 50 207 0 16 9 120 17 180 2 19 7
71 11 115 3 44 8 91 9 105 2 14 6 59 9 100 4 41 9 91 11 110 2 19 7 69 10 110
4 41 8 91 10 110 2 19 7 71 10 115 4 44 9 96 11 115 7 66 6 245 -1 295 -27
190 -87 300 -191 351 -102 50 -218 19 -317 -85 -53 -56 -127 -161 -127 -180 0
-5 -4 -12 -8 -15 -4 -2 -8 41 -9 97 0 70 -6 114 -17 139 -29 68 -88 87 -138
45z"/>
</g>
</svg>
